<svg xmlns="http://www.w3.org/2000/svg" width="400" height="300" viewBox="0 0 400 300"><rect width="100%" height="100%" fill="#4A90D9"/><path fill="#FFFFFF" d="M148.855 117.2h-42.38v28.25h35.78v14.19h-35.78v38.87h-17.82v-95.44h60.2zm12.47 13.59h16.37v67.72h-16.37zm18.61-19.73q0 2.11-.86 3.96-.85 1.85-2.27 3.23-1.42 1.39-3.34 2.21-1.91.83-4.09.83-2.11 0-3.99-.83-1.88-.82-3.27-2.21-1.38-1.38-2.21-3.23-.82-1.85-.82-3.96 0-2.18.82-4.09.83-1.92 2.21-3.3 1.39-1.39 3.27-2.21 1.88-.83 3.99-.83 2.18 0 4.09.83 1.92.82 3.34 2.21 1.42 1.38 2.27 3.3.86 1.91.86 4.09m59.4 27.06-3.69 5.87q-.66 1.06-1.39 1.49t-1.85.43q-1.19 0-2.54-.66t-3.13-1.49q-1.79-.82-4.06-1.48-2.28-.66-5.38-.66-4.82 0-7.56 2.04-2.74 2.05-2.74 5.35 0 2.18 1.42 3.66 1.42 1.49 3.76 2.61 2.35 1.12 5.32 2.01t6.04 1.95q3.06 1.06 6.03 2.41t5.32 3.43q2.34 2.08 3.76 4.98 1.42 2.91 1.42 7 0 4.88-1.75 9.01-1.75 4.12-5.18 7.13-3.43 3-8.48 4.68-5.05 1.69-11.65 1.69-3.5 0-6.83-.63-3.34-.63-6.4-1.75-3.07-1.12-5.68-2.64t-4.59-3.3l3.76-6.2q.73-1.13 1.72-1.72t2.51-.59 2.87.85q1.35.86 3.13 1.85 1.79.99 4.2 1.85 2.4.86 6.1.86 2.9 0 4.98-.69 2.08-.7 3.44-1.82 1.35-1.12 1.98-2.61.62-1.48.62-3.07 0-2.37-1.42-3.89t-3.76-2.64-5.34-2.01q-3.01-.89-6.14-1.95-3.14-1.06-6.14-2.48-3-1.41-5.35-3.59-2.34-2.18-3.76-5.35t-1.42-7.65q0-4.16 1.65-7.92 1.65-3.77 4.85-6.57 3.2-2.81 7.99-4.49 4.78-1.68 11.05-1.68 7 0 12.74 2.31t9.57 6.07m29.31-37.69v37.62q3.96-3.69 8.71-6t11.15-2.31q5.55 0 9.84 1.88t7.16 5.28 4.35 8.12q1.49 4.72 1.49 10.39v43.1h-16.3v-43.1q0-6.2-2.84-9.6t-8.65-3.4q-4.22 0-7.92 1.91-3.69 1.92-6.99 5.22v48.97h-16.31v-98.08z"/></svg>